<?xml version="1.0" encoding="utf-8"?>
<!-- Generator: Adobe Illustrator 23.0.3, SVG Export Plug-In . SVG Version: 6.00 Build 0)  -->
<svg version="1.1" id="Capa_1" xmlns="http://www.w3.org/2000/svg" xmlns:xlink="http://www.w3.org/1999/xlink" x="0px" y="0px"
	 viewBox="0 0 438.5 438.5" style="enable-background:new 0 0 438.5 438.5;" xml:space="preserve">
<style type="text/css">
	.st0{fill:url(#SVGID_1_);}
</style>
<g>
	<linearGradient id="SVGID_1_" gradientUnits="userSpaceOnUse" x1="3.000000e-03" y1="219.2685" x2="438.533" y2="219.2685">
		<stop  offset="0" style="stop-color:#1245C6"/>
		<stop  offset="1" style="stop-color:#9909B7"/>
	</linearGradient>
	<path class="st0" d="M414.4,24.1C398.3,8,379,0,356.3,0H82.2c-22.6,0-42,8-58.1,24.1C8,40.2,0,59.6,0,82.2v274.1
		c0,22.6,8,42,24.1,58.1c16.1,16.1,35.5,24.1,58.1,24.1h274.1c22.6,0,42-8,58.1-24.1c16.1-16.1,24.1-35.5,24.1-58.1V82.2
		C438.5,59.6,430.5,40.2,414.4,24.1z M135.5,354.7c-7.1,7.1-15.8,10.7-25.8,10.7c-10.1,0-18.7-3.6-25.8-10.7
		c-7.1-7.1-10.7-15.8-10.7-25.8c0-10.1,3.6-18.7,10.7-25.8c7.1-7.1,15.8-10.7,25.8-10.7c10.1,0,18.7,3.6,25.8,10.7
		c7.1,7.1,10.7,15.8,10.7,25.8C146.2,339,142.6,347.6,135.5,354.7z M243.8,362.6c-1.9,1.9-4.1,2.8-6.6,2.8h-36.5
		c-2.5,0-4.6-0.8-6.3-2.4c-1.7-1.6-2.7-3.7-2.9-6.1c-2.1-29.3-13.6-54.4-34.5-75.4c-20.9-20.9-46.1-32.4-75.4-34.5
		c-2.5-0.2-4.5-1.1-6.1-2.8c-1.6-1.7-2.4-3.8-2.4-6.3v-36.5c0-2.5,1-4.7,2.9-6.6c1.9-1.9,4.2-2.8,6.9-2.6
		c44.2,2.5,81.8,19.3,113.1,50.5c31.2,31.2,48.1,68.9,50.5,113.1C246.6,358.4,245.7,360.7,243.8,362.6z M353.5,362.6
		c-1.9,1.9-4.1,2.9-6.6,2.9h-36.5c-2.5,0-4.6-0.9-6.3-2.6s-2.7-3.8-2.9-6.3c-1.3-38.8-11.9-74.8-31.8-107.9
		c-19.9-33.1-46.4-59.6-79.5-79.5c-33.1-19.9-69.1-30.5-107.9-31.8c-2.5-0.2-4.6-1.1-6.3-2.9c-1.7-1.7-2.6-3.8-2.6-6.3V91.6
		c0-2.5,1-4.7,2.9-6.6c1.7-1.9,3.9-2.8,6.6-2.6c29.3,0.9,57.6,6.3,84.9,16c27.3,9.7,52.1,23,74.2,39.8
		c22.2,16.8,41.7,36.4,58.5,58.5c16.8,22.2,30.1,46.9,39.8,74.2c9.7,27.3,15,55.6,16,84.9C356.4,358.7,355.6,360.9,353.5,362.6z"/>
</g>
</svg>
